<svg width="80" height="80" viewBox="0 0 80 80" fill="none" xmlns="http://www.w3.org/2000/svg">
<circle cx="40" cy="40" r="39.5" stroke="#44B4FF"/>
<path d="M40 45.488L23.2079 62.2809C22.7495 62.7388 22.1733 62.9732 21.4793 62.9843C20.7858 62.9948 20.1991 62.7603 19.7191 62.2809C19.2397 61.8009 19 61.2194 19 60.5365C19 59.8535 19.2397 59.272 19.7191 58.7921L36.512 42L19.7191 25.2079C19.2612 24.7495 19.0268 24.1733 19.0157 23.4793C19.0052 22.7858 19.2397 22.1991 19.7191 21.7191C20.1991 21.2397 20.7805 21 21.4635 21C22.1465 21 22.728 21.2397 23.2079 21.7191L40 38.512L56.7921 21.7191C57.2505 21.2612 57.8267 21.0268 58.5207 21.0157C59.2142 21.0052 59.8009 21.2397 60.2809 21.7191C60.7603 22.1991 61 22.7805 61 23.4635C61 24.1465 60.7603 24.728 60.2809 25.2079L43.488 42L60.2809 58.7921C60.7388 59.2505 60.9732 59.8267 60.9843 60.5207C60.9948 61.2142 60.7603 61.8009 60.2809 62.2809C59.8009 62.7603 59.2194 63 58.5365 63C57.8535 63 57.272 62.7603 56.7921 62.2809L40 45.488Z" fill="#44B4FF"/>
</svg>
